HIERARCHY
ROOT Hips
{
	OFFSET -0.001795 -0.223333 0.028219
	CHANNELS 6 Xposition Yposition Zposition Zrotation Yrotation Xrotation 
	JOINT LeftUpLeg
	{
		OFFSET 0.069520 -0.091406 -0.006815
		CHANNELS 3 Zrotation Yrotation Xrotation
		JOINT LeftLeg
		{
			OFFSET 0.034277 -0.375199 -0.004496
			CHANNELS 3 Zrotation Yrotation Xrotation
			JOINT LeftFoot
			{
				OFFSET -0.013596 -0.397961 -0.043693
				CHANNELS 3 Zrotation Yrotation Xrotation
				JOINT LeftToe
				{
					OFFSET 0.026358 -0.055791 0.119288
					CHANNELS 3 Zrotation Yrotation Xrotation
					End Site
					{
						OFFSET 0.000000 0.000000 0.000000
					}
				}
			}
		}
	}
	JOINT RightUpLeg
	{
		OFFSET -0.067670 -0.090522 -0.004320
		CHANNELS 3 Zrotation Yrotation Xrotation
		JOINT RightLeg
		{
			OFFSET -0.038290 -0.382569 -0.008850
			CHANNELS 3 Zrotation Yrotation Xrotation
			JOINT RightFoot
			{
				OFFSET 0.015774 -0.398415 -0.042312
				CHANNELS 3 Zrotation Yrotation Xrotation
				JOINT RightToe
				{
					OFFSET -0.025372 -0.048144 0.123348
					CHANNELS 3 Zrotation Yrotation Xrotation
					End Site
					{
						OFFSET 0.000000 0.000000 0.000000
					}
				}
			}
		}
	}
	JOINT Spine
	{
		OFFSET -0.002533 0.108963 -0.026696
		CHANNELS 3 Zrotation Yrotation Xrotation
		JOINT Spine1
		{
			OFFSET 0.005487 0.135180 0.001092
			CHANNELS 3 Zrotation Yrotation Xrotation
			JOINT Spine2
			{
				OFFSET 0.001457 0.052922 0.025425
				CHANNELS 3 Zrotation Yrotation Xrotation
				JOINT Neck
				{
					OFFSET -0.002778 0.213870 -0.042857
					CHANNELS 3 Zrotation Yrotation Xrotation
					JOINT Head
					{
						OFFSET 0.005152 0.064970 0.051349
						CHANNELS 3 Zrotation Yrotation Xrotation
						End Site
						{
							OFFSET 0.000000 0.000000 0.000000
						}
					}
				}
				JOINT LeftShoulder
				{
					OFFSET 0.078845 0.121749 -0.034090
					CHANNELS 3 Zrotation Yrotation Xrotation
					JOINT LeftArm
					{
						OFFSET 0.090977 0.030469 -0.008868
						CHANNELS 3 Zrotation Yrotation Xrotation
						JOINT LeftForeArm
						{
							OFFSET 0.259612 -0.012772 -0.027456
							CHANNELS 3 Zrotation Yrotation Xrotation
							JOINT LeftHand
							{
								OFFSET 0.249234 0.008986 -0.001171
								CHANNELS 3 Zrotation Yrotation Xrotation
								End Site
								{
									OFFSET 0.000000 0.000000 0.000000
								}
							}
						}
					}
				}
				JOINT RightShoulder
				{
					OFFSET -0.081759 0.118833 -0.038615
					CHANNELS 3 Zrotation Yrotation Xrotation
					JOINT RightArm
					{
						OFFSET -0.096012 0.032551 -0.009143
						CHANNELS 3 Zrotation Yrotation Xrotation
						JOINT RightForeArm
						{
							OFFSET -0.253742 -0.013329 -0.021401
							CHANNELS 3 Zrotation Yrotation Xrotation
							JOINT RightHand
							{
								OFFSET -0.255298 0.007772 -0.005559
								CHANNELS 3 Zrotation Yrotation Xrotation
								End Site
								{
									OFFSET 0.000000 0.000000 0.000000
								}
							}
						}
					}
				}
			}
		}
	}
}
MOTION
Frames: 5
Frame Time: 0.050000
-0.245726 0.456050 0.623296 12.955375 13.732292 25.563451 54.453382 2.891678 -28.712214 -10.668781 8.362946 86.255878 -0.242102 -7.098326 -10.842685 0.000000 0.000000 0.000000 -9.831855 -8.012369 -82.581770 7.469881 -20.998576 142.632608 -9.434790 -23.098940 1.455799 0.000000 0.000000 0.000000 -3.288680 -5.734409 58.878061 6.114380 0.171265 -33.165932 2.867288 -0.355019 16.812979 -10.487554 5.271971 -50.384842 0.000000 0.000000 0.000000 5.507916 -17.688203 6.443216 15.344900 -22.894947 -3.717602 65.946114 -30.310085 -18.284279 0.000000 0.000000 0.000000 -18.486110 27.472272 6.567805 -21.494356 23.988055 -4.132242 -78.632196 16.983513 -9.263835 0.000000 0.000000 0.000000 
-0.244436 0.454252 0.619733 12.692312 15.135612 27.050467 52.553049 1.615129 -27.683363 -11.654294 8.408543 85.057216 -1.722802 -4.588060 -1.398780 0.000000 0.000000 0.000000 -9.680641 -9.080489 -83.635066 7.567618 -21.434745 142.417055 -10.600794 -25.597467 4.096554 0.000000 0.000000 0.000000 -1.989583 -6.980724 58.089455 5.908011 0.209264 -33.663724 3.075562 -1.392810 18.651449 -9.213285 4.881797 -51.690852 0.000000 0.000000 0.000000 6.562634 -17.389926 6.300499 14.293867 -22.996373 -3.601752 69.065710 -27.661730 -17.655581 0.000000 0.000000 0.000000 -20.509684 27.926458 6.166317 -21.508747 23.179814 -3.946171 -79.793061 13.246050 -6.726637 0.000000 0.000000 0.000000 
-0.243239 0.452834 0.615674 12.036358 16.026426 28.312139 52.600445 1.041349 -27.250618 -13.821234 10.661522 84.511045 -0.706013 -0.473132 2.229702 0.000000 0.000000 0.000000 -9.546824 -9.737403 -84.786030 7.583536 -21.274922 142.066311 -10.884578 -26.147025 5.060758 0.000000 0.000000 0.000000 -1.232629 -7.529413 56.842845 5.660574 0.209571 -33.266927 3.081803 -1.938776 18.918821 -7.176324 4.440940 -50.855690 0.000000 0.000000 0.000000 7.200580 -17.063687 6.183899 14.031749 -24.228419 -3.858038 72.229644 -27.188470 -18.239605 0.000000 0.000000 0.000000 -19.565616 27.137874 6.261080 -23.227349 24.661599 -4.617441 -77.455399 10.215937 -4.126080 0.000000 0.000000 0.000000 
-0.242520 0.452309 0.610912 11.207061 17.688324 29.444238 52.775582 0.784257 -28.414523 -15.420729 11.837578 83.806110 1.160763 3.001950 1.167260 0.000000 0.000000 0.000000 -8.986644 -10.452478 -85.270673 7.462512 -20.898106 141.799930 -10.747562 -26.241434 3.238775 0.000000 0.000000 0.000000 -0.070548 -8.644866 56.007257 5.353045 0.189904 -32.447958 3.190009 -1.981786 19.265258 -5.159629 4.001659 -51.146631 0.000000 0.000000 0.000000 9.574468 -16.871931 5.963603 13.091702 -24.530462 -3.821714 73.321341 -25.087616 -17.322431 0.000000 0.000000 0.000000 -22.146041 25.684448 5.362437 -21.709889 24.663533 -4.318877 -74.836349 6.994812 -1.392341 0.000000 0.000000 0.000000 
-0.241988 0.456319 0.606548 10.192661 17.698474 30.171263 53.304050 0.985795 -28.971397 -16.263553 12.969915 83.038206 2.225193 4.634714 -0.652068 0.000000 0.000000 0.000000 -8.573242 -10.188173 -86.284515 7.360477 -19.917554 141.250322 -10.940028 -26.593090 2.785974 0.000000 0.000000 0.000000 -0.182215 -8.313783 54.913173 5.757128 0.108491 -32.347372 3.388590 -1.189291 20.329705 -4.333784 3.847933 -52.009369 0.000000 0.000000 0.000000 11.429112 -15.621174 5.519520 11.737642 -25.333823 -3.889449 75.512487 -24.913409 -18.277330 0.000000 0.000000 0.000000 -22.707632 25.294091 5.030716 -21.213646 23.756140 -3.901340 -71.512467 5.064937 0.197920 0.000000 0.000000 0.000000 
